HIERARCHY
ROOT hip
{
  OFFSET 0 0 0
  CHANNELS 6 Xposition Yposition Zposition Zrotation Yrotation Xrotation
  JOINT abdomen
  {
    OFFSET 0 20.6881 -0.73152
    CHANNELS 3 Zrotation Xrotation Yrotation
    JOINT chest
    {
      OFFSET 0 11.7043 -0.48768
      CHANNELS 3 Zrotation Xrotation Yrotation
      JOINT neck
      {
        OFFSET 0 22.1894 -2.19456
        CHANNELS 3 Zrotation Xrotation Yrotation
        JOINT head
        {
          OFFSET -0.24384 7.07133 1.2192
          CHANNELS 3 Zrotation Xrotation Yrotation
          JOINT leftEye
          {
            OFFSET 4.14528 8.04674 8.04672
            CHANNELS 3 Zrotation Xrotation Yrotation
            End Site
            {
              OFFSET 1 0 0
            }
          }
          JOINT rightEye
          {
            OFFSET -3.6576 8.04674 8.04672
            CHANNELS 3 Zrotation Xrotation Yrotation
            End Site
            {
              OFFSET 1 0 0
            }
          }
        }
      }
      JOINT rCollar
      {
        OFFSET -2.68224 19.2634 -4.8768
        CHANNELS 3 Zrotation Xrotation Yrotation
        JOINT rShldr
        {
          OFFSET -8.77824 -1.95073 1.46304
          CHANNELS 3 Zrotation Xrotation Yrotation
          JOINT rForeArm
          {
            OFFSET -28.1742 -1.7115 0.48768
            CHANNELS 3 Zrotation Xrotation Yrotation
            JOINT rHand
            {
              OFFSET -22.5879 0.773209 7.07136
              CHANNELS 3 Zrotation Xrotation Yrotation
              JOINT rThumb1
              {
                OFFSET -1.2192 -0.487915 3.41376
                CHANNELS 3 Zrotation Xrotation Yrotation
                JOINT rThumb2
                {
                  OFFSET -3.37035 -0.52449 3.41376
                  CHANNELS 3 Zrotation Xrotation Yrotation
                  End Site
                  {
                    OFFSET -1.78271 -1.18214 1.43049
                  }
                }
              }
              JOINT rIndex1
              {
                OFFSET -7.75947 0.938293 5.60832
                CHANNELS 3 Zrotation Xrotation Yrotation
                JOINT rIndex2
                {
                  OFFSET -2.54057 -0.884171 1.56538
                  CHANNELS 3 Zrotation Xrotation Yrotation
                  End Site
                  {
                    OFFSET -1.62519 -0.234802 1.16502
                  }
                }
              }
              JOINT rMid1
              {
                OFFSET -8.24714 1.18213 3.41376
                CHANNELS 3 Zrotation Xrotation Yrotation
                JOINT rMid2
                {
                  OFFSET -3.10165 -0.590103 1.0647
                  CHANNELS 3 Zrotation Xrotation Yrotation
                  End Site
                  {
                    OFFSET -2.48547 -0.328903 0.83742
                  }
                }
              }
              JOINT rRing1
              {
                OFFSET -8.82822 0.546677 1.51678
                CHANNELS 3 Zrotation Xrotation Yrotation
                JOINT rRing2
                {
                  OFFSET -2.60934 -0.819778 -0.0198488
                  CHANNELS 3 Zrotation Xrotation Yrotation
                  End Site
                  {
                    OFFSET -2.33842 -0.294052 0.168128
                  }
                }
              }
              JOINT rPinky1
              {
                OFFSET -8.27202 -0.0477905 -0.4584
                CHANNELS 3 Zrotation Xrotation Yrotation
                JOINT rPinky2
                {
                  OFFSET -1.82734 -0.647385 -0.700984
                  CHANNELS 3 Zrotation Xrotation Yrotation
                  End Site
                  {
                    OFFSET -1.69225 -0.51767 -0.607171
                  }
                }
              }
            }
          }
        }
      }
      JOINT lCollar
      {
        OFFSET 2.68224 19.2634 -4.8768
        CHANNELS 3 Zrotation Xrotation Yrotation
        JOINT lShldr
        {
          OFFSET 8.77824 -1.95073 1.46304
          CHANNELS 3 Zrotation Xrotation Yrotation
          JOINT lForeArm
          {
            OFFSET 28.1742 -1.7115 0.48768
            CHANNELS 3 Zrotation Xrotation Yrotation
            JOINT lHand
            {
              OFFSET 22.5879 0.773209 7.07136
              CHANNELS 3 Zrotation Xrotation Yrotation
              JOINT lThumb1
              {
                OFFSET 1.2192 -0.487915 3.41376
                CHANNELS 3 Zrotation Xrotation Yrotation
                JOINT lThumb2
                {
                  OFFSET 3.37035 -0.52449 3.41376
                  CHANNELS 3 Zrotation Xrotation Yrotation
                  End Site
                  {
                    OFFSET 1.78271 -1.18214 1.43049
                  }
                }
              }
              JOINT lIndex1
              {
                OFFSET 7.75947 0.938293 5.60832
                CHANNELS 3 Zrotation Xrotation Yrotation
                JOINT lIndex2
                {
                  OFFSET 2.54057 -0.884171 1.56538
                  CHANNELS 3 Zrotation Xrotation Yrotation
                  End Site
                  {
                    OFFSET 1.62519 -0.234802 1.16502
                  }
                }
              }
              JOINT lMid1
              {
                OFFSET 8.24714 1.18213 3.41376
                CHANNELS 3 Zrotation Xrotation Yrotation
                JOINT lMid2
                {
                  OFFSET 3.10165 -0.590103 1.0647
                  CHANNELS 3 Zrotation Xrotation Yrotation
                  End Site
                  {
                    OFFSET 2.48547 -0.328903 0.83742
                  }
                }
              }
              JOINT lRing1
              {
                OFFSET 8.82822 0.546677 1.51678
                CHANNELS 3 Zrotation Xrotation Yrotation
                JOINT lRing2
                {
                  OFFSET 2.60934 -0.819778 -0.0198488
                  CHANNELS 3 Zrotation Xrotation Yrotation
                  End Site
                  {
                    OFFSET 2.33842 -0.294052 0.168128
                  }
                }
              }
              JOINT lPinky1
              {
                OFFSET 8.27202 -0.0477905 -0.4584
                CHANNELS 3 Zrotation Xrotation Yrotation
                JOINT lPinky2
                {
                  OFFSET 1.82734 -0.647385 -0.700984
                  CHANNELS 3 Zrotation Xrotation Yrotation
                  End Site
                  {
                    OFFSET 1.69225 -0.51767 -0.607171
                  }
                }
              }
            }
          }
        }
      }
    }
  }
  JOINT rButtock
  {
    OFFSET -8.77824 4.35084 1.2192
    CHANNELS 3 Zrotation Xrotation Yrotation
    JOINT rThigh
    {
      OFFSET 0 -1.70687 -2.19456
      CHANNELS 3 Zrotation Xrotation Yrotation
      JOINT rShin
      {
        OFFSET 0 -36.8199 0.73152
        CHANNELS 3 Zrotation Xrotation Yrotation
        JOINT rFoot
        {
          OFFSET 0.73152 -45.1104 -5.12064
          CHANNELS 3 Zrotation Xrotation Yrotation
          End Site
          {
            OFFSET -1.1221 -3.69964 12.103
          }
        }
      }
    }
  }
  JOINT lButtock
  {
    OFFSET 8.77824 4.35084 1.2192
    CHANNELS 3 Zrotation Xrotation Yrotation
    JOINT lThigh
    {
      OFFSET 0 -1.70687 -2.19456
      CHANNELS 3 Zrotation Xrotation Yrotation
      JOINT lShin
      {
        OFFSET 0 -36.8199 0.73152
        CHANNELS 3 Zrotation Xrotation Yrotation
        JOINT lFoot
        {
          OFFSET -0.73152 -45.1104 -5.12064
          CHANNELS 3 Zrotation Xrotation Yrotation
          End Site
          {
            OFFSET 1.1221 -3.69964 12.103
          }
        }
      }
    }
  }
}
MOTION
Frames:	4
Frame Time:	0.03333
3.322524952576944 33.787723220191644 21.75503582870915 -14.734597206115723 -30.678903579711914 1.6792998313903809 13.129398345947266 17.959598541259766 14.673598289489746 -1.3763099908828735 -7.8159589767456055 4.408559799194336 -2.321319818496704 13.962400436401367 1.0523098707199097 5.777939796447754 -22.964599609375 3.3222694396972656 -0.0 0.0 -0.0 -0.0 0.0 -0.0 -4.293748584222219e-14 2.4490270380227164e-13 -2.608054831126916e-13 63.76939392089844 42.67429733276367 -1.7049899101257324 -20.532501220703125 -13.696599960327148 39.98889923095703 -0.17402400076389313 11.804699897766113 1.6831600666046143 -5.671548786168046e-10 2.434205614854079e-10 8.462310296941666e-10 -9.735057204807163e-10 4.1053643817789975e-10 1.4637802081551854e-09 -5.671517144811844e-10 2.43422143553218e-10 8.462247014229263e-10 7.7309088706970215 5.474880218505859 0.41731396317481995 -5.671564884401903e-10 2.434253354444138e-10 8.462310296941666e-10 2.9055399894714355 0.9651829600334167 0.10290198773145676 -5.671501046577987e-10 2.43428499580034e-10 8.462374134765582e-10 10.27859878540039 0.73180091381073 0.025912299752235413 -5.671596525758105e-10 2.43428499580034e-10 8.462437972589498e-10 2.2216696739196777 -0.7334870100021362 -0.2089199721813202 -4.293748584222219e-14 2.4490270380227164e-13 -2.608054831126916e-13 -67.43440246582031 32.54349136352539 -14.18799877166748 13.324398040771484 -6.421979904174805 -24.20439910888672 0.27560797333717346 14.778899192810059 -2.124850034713745 1.2074100608217009e-09 1.1979002234596692e-09 1.0152902962801136e-09 2.0983199622293114e-09 2.0488193364087692e-09 1.737371579935143e-09 1.2074100608217009e-09 1.197909771377681e-09 1.0153029528225943e-09 -7.7309088706970215 5.474880218505859 -0.41731396317481995 1.2074100608217009e-09 1.1979002234596692e-09 1.0152775287153304e-09 -2.9055399894714355 0.9651829600334167 -0.10290198773145676 1.2074005129036891e-09 1.1978906755416574e-09 1.0152775287153304e-09 -10.27859878540039 0.73180091381073 -0.025912299752235413 1.2074100608217009e-09 1.197909771377681e-09 1.01527120044409e-09 -2.2216696739196777 -0.7334870100021362 0.2089199721813202 -0.0 0.0 -0.0 -12.25679874420166 8.843290328979492 -1.1490497589111328 -0.11830606311559677 42.036197662353516 2.27167010307312 -10.863199234008789 -18.22119903564453 -29.983896255493164 -0.0 0.0 -0.0 64.57229614257812 -45.55619812011719 55.8528938293457 3.387329578399658 75.38580322265625 -3.322589635848999 -0.5750169157981873 -4.636199951171875 -3.885099411010742
3.3157067550079735 33.77385793617652 21.809524116380178 -14.73489761352539 -30.871400833129883 1.760599970817566 13.123800277709961 17.94390106201172 14.791099548339844 -1.3536897897720337 -7.743940830230713 4.445280075073242 -2.2986297607421875 13.986199378967285 1.0162301063537598 5.594639778137207 -23.2106990814209 3.2258498668670654 -0.0 0.0 -0.0 -0.0 0.0 -0.0 -2.95791575911572e-13 1.9878466006508638e-13 5.152498436591935e-13 63.70929718017578 42.77689743041992 -1.6510097980499268 -20.530799865722656 -13.694199562072754 39.98429489135742 -0.17377597093582153 11.796599388122559 1.6819700002670288 -1.592630888280766e-10 -9.97867205532188e-11 5.824740134663386e-10 -2.724939995868425e-10 -1.71975766960486e-10 1.0033123221120377e-09 -1.5925354091006483e-10 -9.979626153233667e-11 5.824613014127067e-10 7.7309088706970215 5.474880218505859 0.41731396317481995 -1.592646708958867e-10 -9.97835356009169e-11 5.824676851950983e-10 2.9055399894714355 0.9651829600334167 0.10290198773145676 -1.5925671892347282e-10 -9.97835356009169e-11 5.824676851950983e-10 10.27859878540039 0.73180091381073 0.025912299752235413 -1.5926944485489258e-10 -9.978035758750892e-11 5.824740134663386e-10 2.2216696739196777 -0.7334870100021362 -0.2089199721813202 -2.95791575911572e-13 1.9878466006508638e-13 5.152498436591935e-13 -67.47999572753906 32.455501556396484 -14.198598861694336 13.269699096679688 -6.379980087280273 -24.09600067138672 0.27920404076576233 14.87239933013916 -2.1389198303222656 -1.3194498826862855e-09 -1.8004324420228812e-10 1.3983498803327166e-09 -2.2641493124808676e-09 -2.8171762145312584e-10 2.428887757588427e-09 -1.3194498826862855e-09 -1.8004005231109232e-10 1.3983498803327166e-09 -7.7309088706970215 5.474880218505859 -0.41731396317481995 -1.3194498826862855e-09 -1.8003369628427635e-10 1.398330784496693e-09 -2.9055399894714355 0.9651829600334167 -0.10290198773145676 -1.3194594306042973e-09 -1.80051196174702e-10 1.398330784496693e-09 -10.27859878540039 0.73180091381073 -0.025912299752235413 -1.3194498826862855e-09 -1.8002574431186247e-10 1.3983180169319098e-09 -2.2216696739196777 -0.7334870100021362 0.2089199721813202 -0.0 0.0 -0.0 -12.354397773742676 8.835189819335938 -1.1628800630569458 -0.11511804163455963 41.88819885253906 2.2702901363372803 -10.78179931640625 -18.34709930419922 -29.708999633789062 -0.0 0.0 -0.0 64.78189849853516 -45.49879455566406 55.95759582519531 3.4274697303771973 75.54009246826172 -3.376859664916992 -0.5063939094543457 -5.077709674835205 -3.4106698036193848
3.306654022115286 33.75225746292636 21.828030652341038 -14.773698806762695 -31.027103424072266 1.8555996417999268 13.194000244140625 17.889999389648438 14.837599754333496 -1.3547499179840088 -7.742800235748291 4.461150169372559 -2.2276601791381836 14.206099510192871 0.9599979519844055 5.299939155578613 -23.7012996673584 3.0676801204681396 -0.0 0.0 -0.0 -0.0 0.0 -0.0 -2.7352767403496236e-13 9.382635456339078e-14 5.979442201792251e-13 63.63679504394531 42.962398529052734 -1.5730799436569214 -20.488000869750977 -13.638299942016602 39.87799835205078 -0.17625100910663605 11.879098892211914 1.694079875946045 3.157877015436128e-10 -5.653451595755143e-10 2.3094642864762704e-10 5.453426599189015e-10 -9.698687408743467e-10 3.930656355954909e-10 3.157956673938145e-10 -5.653547074935261e-10 2.3093370271620728e-10 7.7309088706970215 5.474880218505859 0.41731396317481995 3.157861194758027e-10 -5.653467693989e-10 2.3094005874302326e-10 2.9055399894714355 0.9651829600334167 0.10290198773145676 3.157924755026187e-10 -5.653467693989e-10 2.3094005874302326e-10 10.27859878540039 0.73180091381073 0.025912299752235413 3.1577976344898673e-10 -5.653467693989e-10 2.3094642864762704e-10 2.2216696739196777 -0.7334870100021362 -0.2089199721813202 -2.7352767403496236e-13 9.382635456339078e-14 5.979442201792251e-13 -67.53269958496094 32.39459991455078 -14.152898788452148 13.2214994430542 -6.343039512634277 -24.000398635864258 0.28210189938545227 14.947099685668945 -2.150169849395752 -1.0581593379299647e-09 7.81020137452515e-10 1.356729173451754e-09 -1.8109695965051742e-09 1.3798899800576692e-09 2.3550925654092225e-09 -1.0581593379299647e-09 7.810185276291293e-10 1.356729173451754e-09 -7.7309088706970215 5.474880218505859 -0.41731396317481995 -1.058170440160211e-09 7.81020137452515e-10 1.3567100776157304e-09 -2.9055399894714355 0.9651829600334167 -0.10290198773145676 -1.058170440160211e-09 7.810153634935091e-10 1.3567100776157304e-09 -10.27859878540039 0.73180091381073 -0.025912299752235413 -1.0581593379299647e-09 7.810312951939125e-10 1.3566973100509472e-09 -2.2216696739196777 -0.7334870100021362 0.2089199721813202 -0.0 0.0 -0.0 -12.347597122192383 8.800049781799316 -1.2098897695541382 -0.11207787692546844 41.75440216064453 2.2700998783111572 -10.715099334716797 -18.40989875793457 -29.52959632873535 -0.0 0.0 -0.0 65.0634994506836 -45.56679916381836 56.09429931640625 3.4666199684143066 75.68900299072266 -3.4309399127960205 -0.41942298412323 -5.393809795379639 -2.9161295890808105
3.2953667534819995 33.71157685622976 21.892602993950074 -14.986199378967285 -30.942995071411133 2.150399684906006 13.293299674987793 17.824100494384766 14.84630012512207 -1.3517401218414307 -7.744719505310059 4.467199802398682 -2.1756598949432373 14.36729907989502 0.9182199239730835 5.079740524291992 -24.07659912109375 2.9502296447753906 -0.0 0.0 -0.0 -0.0 0.0 -0.0 -1.2881246091479837e-13 -2.0673604294403278e-14 4.134720994405927e-13 63.57709884643555 43.15060043334961 -1.507539987564087 -20.449100494384766 -13.58739948272705 39.78169631958008 -0.17877496778964996 11.961999893188477 1.706259846687317 4.5045239760455047e-10 -4.992516400292857e-10 -1.8052191685935526e-10 7.753746533722961e-10 -8.538834639360005e-10 -3.167704987205866e-10 4.5045717156355636e-10 -4.992595781239118e-10 -1.80540998817591e-10 7.7309088706970215 5.474880218505859 0.41731396317481995 4.5045239760455047e-10 -4.992564139882916e-10 -1.8052191685935526e-10 2.9055399894714355 0.9651829600334167 0.10290198773145676 4.5045717156355636e-10 -4.992580238116773e-10 -1.8052827288617124e-10 10.27859878540039 0.73180091381073 0.025912299752235413 4.504444317543488e-10 -4.992564139882916e-10 -1.8052191685935526e-10 2.2216696739196777 -0.7334870100021362 -0.2089199721813202 -1.2881246091479837e-13 -2.0673604294403278e-14 4.134720994405927e-13 -67.61479949951172 32.327598571777344 -14.080399513244629 13.18819808959961 -6.317729473114014 -23.934598922729492 0.2848479747772217 15.017702102661133 -2.1608099937438965 -1.6616806541858153e-10 1.2391806469835842e-09 6.361999815851505e-10 -2.765364881529564e-10 2.1536996630544536e-09 1.100898039396725e-09 -1.6617125730977733e-10 1.2391694337310355e-09 6.361999815851505e-10 -7.7309088706970215 5.474880218505859 -0.41731396317481995 -1.6617443532318532e-10 1.2391694337310355e-09 6.361872140203673e-10 -2.9055399894714355 0.9651829600334167 -0.10290198773145676 -1.6617443532318532e-10 1.2391806469835842e-09 6.361872140203673e-10 -10.27859878540039 0.73180091381073 -0.025912299752235413 -1.6616648335077144e-10 1.2391806469835842e-09 6.361808857491269e-10 -2.2216696739196777 -0.7334870100021362 0.2089199721813202 -0.0 0.0 -0.0 -12.28549861907959 8.794839859008789 -1.2622698545455933 -0.10892903059720993 41.62590408325195 2.2714099884033203 -10.66919994354248 -18.42999839782715 -29.439599990844727 -0.0 0.0 -0.0 65.38159942626953 -45.68349838256836 56.238197326660156 3.51528000831604 75.8623046875 -3.492650270462036 -0.3442370295524597 -5.654789924621582 -2.512279987335205
